<svg width="100" height="100" viewBox="0 0 100 100" fill="none" xmlns="http://www.w3.org/2000/svg">
<path d="M33.6668 99.9999C38.0869 99.9999 42.3263 98.2439 45.4518 95.1183C48.5774 91.9928 50.3334 87.7534 50.3334 83.3333V66.6665H33.6668C29.2464 66.6665 25.0072 68.4224 21.8816 71.5481C18.7559 74.6737 17 78.9129 17 83.3333C17 87.7534 18.7559 91.9928 21.8816 95.1183C25.0072 98.2439 29.2464 99.9999 33.6668 99.9999Z" fill="#0ACF83"/>
<path d="M17 50.0005C17 45.5802 18.7559 41.3409 21.8816 38.2153C25.0072 35.0897 29.2464 33.3337 33.6668 33.3337H50.3334V66.6671H33.6668C29.2464 66.6671 25.0072 64.9112 21.8816 61.7855C18.7559 58.6599 17 54.4207 17 50.0005Z" fill="#A259FF"/>
<path d="M17 16.6668C17 12.2486 18.7542 8.01143 21.8769 4.88611C24.9997 1.76094 29.2357 0.00343751 33.6536 0H50.3204V33.3334H33.6668C29.2464 33.3334 25.0072 31.5774 21.8816 28.4518C18.7559 25.3263 17 21.0869 17 16.6668Z" fill="#F24E1E"/>
<path d="M50.3333 0H66.9999C71.4202 0 75.6594 1.75594 78.785 4.88158C81.9107 8.00721 83.6666 12.2464 83.6666 16.6668C83.6666 21.0869 81.9107 25.3263 78.785 28.4518C75.6594 31.5774 71.4202 33.3334 66.9999 33.3334H50.3333V0Z" fill="#FF7262"/>
<path d="M83.6666 50.0005C83.6666 54.4207 81.9107 58.6599 78.785 61.7855C75.6594 64.9112 71.4202 66.6671 66.9999 66.6671C62.5795 66.6671 58.3403 64.9112 55.2147 61.7855C52.0892 58.6599 50.3333 54.4207 50.3333 50.0005C50.3333 45.5802 52.0892 41.3409 55.2147 38.2153C58.3403 35.0897 62.5795 33.3337 66.9999 33.3337C71.4202 33.3337 75.6594 35.0897 78.785 38.2153C81.9107 41.3409 83.6666 45.5802 83.6666 50.0005Z" fill="#1ABCFE"/>
</svg>
